# xmcd
#
# Track frame offsets: 
#        150
#        12247
#        30067
#        41542
#        52784
#        62494
#        73624
#        92461
#        106473
#        118888
#        130525
#        142565
#        156307
#        172332
#        186147
#        200784
#        214825
#        229386
#
# Disc length: 3277 seconds
#
# Revision: 5
# Processed by: cddbd v1.5.2PL0 Copyright (c) Steve Scherf et al.
# Submitted via: ExactAudioCopy v1.3
#
DISCID=f20ccb12
DTITLE=Various Artist - 100% Country Classics
DYEAR=1991
DGENRE=Country
TTITLE0=Johnny Cash - Ring of Fire
TTITLE1=Marty Robbins - Big Iron
TTITLE2=Don Gibson - Oh lonesome me
TTITLE3=Buck Owens - Heartaches by the Number
TTITLE4=George Jones - The race is on
TTITLE5=Roger Miller - King of the Road
TTITLE6=Kris Kristofferson - Me and Bobby McGee
TTITLE7=Glen Campbell - Wichita Lineman
TTITLE8=Tom T. Hall - The Year that Clayton Delaney died
TTITLE9=Freddy Fender - Before the next Teardrop falls
TTITLE10=Ray Charles - Together again
TTITLE11=George Jones and Tammy Wynette - Golden Ring
TTITLE12=Willie Nelson - Always on my Mind
TTITLE13=Charlie Rich - Sittin' and thinkin'
TTITLE14=Merle Haggard - Green green Grass of Home
TTITLE15=Willie Nelson and Roger Miller - Old Friends
TTITLE16=Willie Nelson and Faron Young - Three Days
TTITLE17=George Jones and Elvis Costello - Stranger in the House
EXTD=MOM 241 EAN 4011778012412 YEAR: 1991 ID3G: 2
EXTT0=
EXTT1=
EXTT2=
EXTT3=
EXTT4=
EXTT5=
EXTT6=
EXTT7=
EXTT8=
EXTT9=
EXTT10=
EXTT11=
EXTT12=
EXTT13=
EXTT14=
EXTT15=
EXTT16=
EXTT17=
PLAYORDER=
